PathFileType	3	(X/Y/Z)	D:\minhoCalibration\240510\subject2_KPNP\preferred\preferred16.trc
DataRate	CameraRate	NumFrames	NumMarkers	Units	OrigDataRate	OrigDataStartFrame	OrigNumFrames
200.0	200.0	21	10	mm	200.0	939	215	
Frame#	Time	Left_Ankle_Outer1			Left_Ankle_Inner1			Left_Knee_Outer1			Left_Knee_Inner1			Left_Wrist1			Right_Wrist1			Right_Knee_Inner1			Right_Knee_Outer1			Right_Ankle_Inner1			Right_Ankle_Outer1			
		X1	Y1	Z1	X2	Y2	Z2	X3	Y3	Z3	X4	Y4	Z4	X5	Y5	Z5	X6	Y6	Z6	X7	Y7	Z7	X8	Y8	Z8	X9	Y9	Z9	X10	Y10	Z10	
939	4.685	-705.41772	118.96493	-700.63367	-698.5946	124.51267	-644.30273	-515.16412	525.69653	-762.46771	-518.57245	508.85492	-663.46625	-639.0827	945.8302	-834.95184	-626.41925	1183.924	-578.0451	-392.83664	983.08435	-228.38593	-401.88849	1074.4838	-241.93542	-342.73444	1003.6115	181.01862	-326.65601	1101.2382	171.84064
940	4.69	-705.69849	119.42435	-699.20398	-698.84375	123.9568	-643.72614	-516.98438	526.05121	-760.79474	-518.521	509.1282	-662.07391	-638.60675	946.42212	-832.68402	-627.21051	1184.8412	-576.46655	-382.05533	984.96356	-235.33304	-392.04926	1073.9677	-245.70451	-352.06735	1003.7377	181.3694	-335.43951	1102.8629	173.63737
941	4.695	-705.6236	119.70928	-698.03235	-699.31323	124.2668	-641.82153	-518.57385	526.70728	-758.83215	-518.25391	509.37103	-660.64886	-638.45172	946.95959	-830.59717	-628.24933	1185.3517	-574.92188	-376.60291	987.73358	-239.84317	-381.38388	1073.1298	-249.23622	-359.24951	1000.8564	181.75932	-346.00055	1101.075	173.62617
942	4.7	-705.45752	120.12356	-697.27661	-698.66852	124.64284	-641.22485	-519.64722	527.1936	-757.25665	-517.99237	509.59827	-659.12866	-638.49268	947.52411	-828.5451	-629.25824	1185.5492	-572.97845	-376.83911	991.54492	-239.64044	-370.7843	1071.6588	-252.778	-362.71378	995.82147	179.40482	-355.60147	1096.2092	176.53307
943	4.705	-705.10156	120.59885	-696.75287	-698.62695	125.60721	-639.30389	-520.6778	527.6842	-755.02258	-517.79877	509.94455	-657.55231	-638.45984	948.01709	-826.7168	-630.16693	1185.5211	-570.84027	-380.17371	995.45538	-235.51152	-366.04941	1070.2917	-253.62747	-368.70895	991.11877	179.28929	-360.34872	1090.9954	180.01744
944	4.71	-704.92944	121.19131	-696.41199	-698.58734	124.43839	-640.9306	-521.565	528.19714	-752.6806	-517.94739	510.51266	-655.85986	-638.40894	948.22974	-824.91199	-631.09137	1185.4354	-568.78894	-384.64645	999.77838	-230.36	-369.86301	1078.079	-249.6407	-374.01904	986.59631	180.78084	-363.89575	1087.2601	184.15498
945	4.715	-704.67029	121.59264	-695.75787	-698.20599	124.95956	-640.19476	-521.62482	529.18939	-750.75598	-518.40576	511.21814	-653.99603	-638.55194	948.58008	-823.94574	-631.83228	1185.4437	-567.09332	-388.39658	1004.1486	-226.93466	-379.23944	1088.0363	-246.58189	-375.43134	983.27533	182.47421	-367.08713	1084.8069	188.15387
946	4.72	-704.7384	122.11665	-695.17847	-698.41302	124.61637	-640.07104	-522.35614	529.94598	-748.09009	-519.23596	512.01941	-652.02911	-638.68475	948.53394	-822.58582	-632.28577	1185.6346	-565.7135	-391.07343	1007.6355	-225.71011	-391.95099	1096.6899	-241.70332	-375.4671	978.57074	182.63199	-369.17346	1080.5731	190.42131
947	4.725	-704.83356	122.48042	-694.25159	-698.41235	126.33444	-636.66443	-522.23431	530.974	-746.14386	-520.42242	512.81458	-650.02814	-638.81433	948.10095	-821.51526	-632.25958	1186.1929	-564.84961	-391.24692	1012.3326	-226.37444	-404.28098	1101.4222	-235.96596	-376.92044	972.45056	181.66682	-372.94925	1074.3185	193.11874
948	4.73	-704.98834	122.84292	-692.87518	-698.30408	126.00204	-636.23511	-522.38605	531.88721	-744.18994	-521.94843	513.50037	-648.0191	-638.90167	947.40967	-820.53326	-632.09338	1187.2067	-564.49274	-387.90323	1017.3478	-228.31328	-413.49387	1103.3824	-230.96373	-377.25998	966.05389	182.05827	-377.44852	1067.28	194.96785
949	4.735	-705.3186	123.04762	-691.41333	-698.76562	126.63533	-633.54169	-522.9635	532.43286	-742.09283	-523.7995	514.07916	-646.07312	-638.73273	946.58252	-819.38049	-632.04089	1188.5792	-564.58557	-384.87509	1021.2433	-231.2238	-419.11514	1103.7644	-227.70258	-376.65521	960.45752	182.95428	-381.75089	1061.0249	196.95541
950	4.74	-705.71539	123.33475	-689.72266	-698.6593	125.80216	-633.5683	-523.36737	533.02368	-740.64807	-525.93286	514.65375	-644.1344	-638.46735	945.74457	-818.15887	-631.97223	1190.1633	-564.94312	-383.24158	1023.926	-232.45555	-423.59009	1102.8552	-225.00143	-375.69955	954.29852	183.07027	-385.60739	1054.3374	199.00407
951	4.745	-706.09198	123.39167	-687.84967	-699.05865	125.64739	-632.03442	-524.06531	533.27814	-739.34961	-528.32953	515.15033	-642.32111	-637.85468	945.02002	-817.17719	-631.95215	1191.6722	-565.46118	-382.45813	1024.4009	-231.00746	-428.1763	1101.198	-221.77267	-374.58112	948.98834	183.38776	-388.0759	1047.521	200.54761
952	4.75	-706.60431	123.47	-686.05237	-698.88049	126.33006	-629.6637	-525.08405	533.38995	-738.15021	-530.80511	515.63696	-640.72339	-636.77429	944.60132	-816.3147	-632.00348	1192.9943	-566.0752	-384.25195	1023.3943	-227.91141	-432.21567	1098.981	-218.66591	-372.36575	944.03143	183.46498	-390.19028	1041.4325	202.17508
953	4.755	-707.06445	123.62601	-684.47021	-699.0235	126.06491	-628.539	-525.72363	533.51013	-737.73871	-533.23737	516.0694	-639.38727	-635.27661	944.55353	-815.93817	-632.24646	1193.9506	-566.52283	-386.83673	1020.9907	-224.81877	-435.7038	1096.3845	-216.15302	-370.9635	938.23267	183.61575	-391.83676	1035.7037	203.45992
954	4.76	-707.44836	123.7152	-683.12305	-698.93207	126.07076	-627.38977	-526.70837	533.40674	-737.1167	-535.4552	516.49097	-638.45026	-633.47717	944.96295	-816.01208	-632.72827	1194.481	-566.58093	-391.0029	1017.6487	-221.83678	-439.05612	1093.6172	-213.797	-371.02661	932.93695	184.48412	-393.25485	1029.3804	204.617
955	4.765	-707.84393	123.74306	-682.17096	-699.06165	125.1991	-627.56934	-527.58801	533.16052	-736.95935	-537.34894	516.83905	-637.89075	-631.5603	945.88605	-816.37701	-633.51312	1194.4442	-566.22961	-395.37009	1014.051	-219.7261	-442.41376	1090.8463	-211.39365	-366.86533	929.71204	181.56223	-394.87579	1022.3505	205.96713
956	4.77	-707.98291	123.57128	-681.46429	-698.98187	125.8982	-625.78125	-528.96411	532.57257	-736.7113	-538.83185	517.14923	-637.83026	-629.52289	947.22827	-816.85291	-634.73169	1193.8771	-565.49689	-401.38675	1010.1902	-217.60849	-445.61667	1088.1637	-208.87985	-370.21985	920.29968	184.06512	-396.97467	1014.6798	207.4774
957	4.775	-708.11859	123.38599	-681.24689	-698.901	126.11198	-625.14392	-529.81403	532.47614	-736.96075	-539.92218	517.42004	-638.24384	-627.19055	948.96857	-817.41852	-636.46527	1192.9011	-564.55237	-407.58359	1006.28	-215.22392	-448.65692	1085.5144	-206.10733	-367.23425	915.13092	180.78934	-398.71405	1006.2025	208.35187
958	4.78	-708.18988	123.24461	-681.46143	-699.34711	126.36299	-624.55725	-530.94794	532.34906	-737.34283	-540.70526	517.6123	-639.08685	-624.63214	950.92957	-817.99408	-638.57806	1191.6776	-563.32629	-411.93353	1002.9782	-213.95236	-451.46225	1082.8645	-203.16606	-367.71628	906.70959	179.62947	-401.00687	996.90704	209.26012
959	4.785	-708.21722	123.10091	-682.12555	-699.38196	125.58718	-626.25818	-531.96674	532.42761	-738.0152	-541.23645	517.72198	-640.29279	-621.95679	952.97369	-818.62128	-640.90588	1190.1837	-561.98834	-415.27783	999.97375	-212.6306	-454.08856	1080.127	-200.27002	-368.56677	897.86377	178.07271	-402.39197	986.25293	209.49771
